<?xml version="1.0" encoding="UTF-8"?>
<svg xmlns="http://www.w3.org/2000/svg" xmlns:xlink="http://www.w3.org/1999/xlink" width="55pt" height="50pt" viewBox="0 0 55 50" version="1.1">
<g id="surface1">
<path style=" stroke:none;fill-rule:nonzero;fill:rgb(13.72549%,85.098039%,59.215686%);fill-opacity:1;" d="M 45.363281 19.097656 C 44.941406 18.714844 44.261719 18.714844 43.84375 19.097656 C 43.425781 19.476562 43.425781 20.097656 43.84375 20.476562 C 43.859375 20.492188 43.878906 20.507812 43.894531 20.523438 C 44.101562 20.699219 44.363281 20.785156 44.628906 20.785156 C 44.914062 20.785156 45.199219 20.679688 45.410156 20.476562 C 45.816406 20.082031 45.796875 19.464844 45.363281 19.097656 Z M 45.363281 19.097656 "/>
<path style=" stroke:none;fill-rule:nonzero;fill:rgb(13.72549%,85.098039%,59.215686%);fill-opacity:1;" d="M 43.179688 17.492188 C 42.566406 17.113281 41.933594 16.773438 41.304688 16.484375 C 37.738281 14.855469 33.960938 14.527344 30.378906 15.539062 C 29.8125 15.699219 29.496094 16.246094 29.671875 16.761719 C 29.847656 17.277344 30.449219 17.5625 31.015625 17.402344 C 34.054688 16.546875 37.28125 16.832031 40.335938 18.230469 C 40.878906 18.476562 41.441406 18.78125 41.972656 19.109375 C 42.160156 19.222656 42.367188 19.277344 42.574219 19.277344 C 42.917969 19.277344 43.257812 19.125 43.464844 18.847656 C 43.796875 18.402344 43.671875 17.796875 43.179688 17.492188 Z M 43.179688 17.492188 "/>
<path style=" stroke:none;fill-rule:nonzero;fill:rgb(13.72549%,85.098039%,59.215686%);fill-opacity:1;" d="M 52.953125 30.128906 C 52.511719 29.289062 51.785156 27.898438 51.769531 27.4375 C 53.027344 24.625 52.566406 21.507812 50.476562 18.660156 C 47.257812 14.277344 40.664062 11.097656 34.796875 11.097656 C 31.695312 11.097656 28.664062 11.769531 25.941406 13.054688 C 25.15625 9.160156 21.402344 6.195312 16.894531 6.195312 C 11.824219 6.195312 7.699219 9.949219 7.699219 14.558594 C 7.699219 17.488281 9.34375 20.15625 12.097656 21.691406 C 12.890625 22.132812 13.070312 22.515625 13.132812 23.140625 L 13.132812 28.855469 C 13.132812 29.945312 14.109375 30.832031 15.308594 30.832031 L 15.671875 30.832031 C 16.265625 35.109375 18.539062 38.988281 22.152344 41.84375 C 22.1875 41.941406 22.285156 42.394531 21.859375 43.742188 C 21.527344 44.792969 21.015625 45.960938 20.566406 46.992188 C 20.265625 47.683594 20.003906 48.277344 19.847656 48.726562 C 19.742188 49.023438 19.800781 49.347656 20.003906 49.601562 C 20.207031 49.851562 20.527344 50 20.871094 50 L 36.207031 50 C 36.707031 50 37.402344 49.796875 37.835938 48.816406 C 38.027344 48.394531 38.148438 47.882812 38.28125 47.339844 C 38.410156 46.8125 38.707031 45.574219 39.003906 45.425781 C 39.003906 45.425781 39.023438 45.421875 39.066406 45.429688 C 39.121094 45.4375 39.175781 45.441406 39.230469 45.441406 C 40.835938 45.441406 42.148438 45.507812 43.308594 45.566406 C 46.703125 45.738281 48.753906 45.839844 50.550781 43.488281 C 51.464844 42.289062 51.359375 40.542969 51.25 38.695312 C 51.195312 37.742188 51.136719 36.757812 51.242188 35.9375 C 51.425781 35.773438 51.898438 35.480469 52.191406 35.292969 C 53.203125 34.664062 54.160156 34.066406 54.160156 33.15625 C 54.160156 32.46875 53.703125 31.558594 52.953125 30.128906 Z M 13.21875 20.023438 C 11.109375 18.847656 9.847656 16.804688 9.847656 14.558594 C 9.847656 11.023438 13.007812 8.148438 16.894531 8.148438 C 20.78125 8.148438 23.941406 11.023438 23.941406 14.558594 C 23.941406 16.804688 22.683594 18.847656 20.570312 20.023438 C 19.566406 20.585938 18.972656 21.234375 18.6875 22.117188 L 15.101562 22.117188 C 14.820312 21.238281 14.222656 20.585938 13.21875 20.023438 Z M 18.507812 24.070312 L 18.507812 25.5 L 15.28125 25.5 L 15.28125 24.070312 Z M 15.308594 28.878906 C 15.296875 28.878906 15.28125 28.867188 15.28125 28.855469 L 15.28125 27.453125 L 18.507812 27.453125 L 18.507812 28.855469 C 18.507812 28.867188 18.492188 28.878906 18.480469 28.878906 Z M 50.976562 33.683594 C 50.050781 34.261719 49.253906 34.761719 49.132812 35.515625 C 48.972656 36.550781 49.039062 37.691406 49.105469 38.796875 C 49.1875 40.171875 49.28125 41.726562 48.785156 42.371094 C 47.71875 43.773438 46.792969 43.785156 43.425781 43.617188 C 42.316406 43.558594 40.9375 43.492188 39.304688 43.488281 C 38.675781 43.421875 37.613281 43.527344 36.90625 44.78125 C 36.546875 45.414062 36.355469 46.214844 36.183594 46.917969 C 36.097656 47.273438 35.976562 47.769531 35.863281 48.046875 L 22.417969 48.046875 C 22.464844 47.9375 22.511719 47.828125 22.5625 47.714844 C 24.109375 44.171875 25.089844 41.574219 23.597656 40.402344 C 20.4375 37.914062 18.421875 34.546875 17.84375 30.832031 L 18.480469 30.832031 C 19.679688 30.832031 20.65625 29.945312 20.65625 28.855469 L 20.65625 23.144531 C 20.71875 22.515625 20.898438 22.132812 21.695312 21.691406 C 24.238281 20.273438 25.832031 17.890625 26.0625 15.226562 C 28.699219 13.800781 31.707031 13.050781 34.796875 13.050781 C 39.914062 13.050781 45.886719 15.929688 48.6875 19.746094 C 49.890625 21.378906 51.050781 23.925781 49.753906 26.757812 C 49.335938 27.679688 49.960938 28.960938 51.015625 30.96875 C 51.355469 31.621094 51.847656 32.5625 51.980469 33.003906 C 51.757812 33.195312 51.28125 33.492188 50.976562 33.683594 Z M 50.976562 33.683594 "/>
<path style=" stroke:none;fill-rule:nonzero;fill:rgb(13.72549%,85.098039%,59.215686%);fill-opacity:1;" d="M 22.164062 13.175781 C 21.847656 12.109375 21.058594 11.253906 19.882812 10.703125 C 19.355469 10.453125 18.707031 10.640625 18.4375 11.121094 C 18.164062 11.601562 18.371094 12.191406 18.898438 12.4375 C 19.539062 12.738281 19.929688 13.148438 20.089844 13.6875 C 20.34375 14.539062 19.960938 15.464844 19.792969 15.703125 C 19.472656 16.160156 19.621094 16.761719 20.121094 17.050781 C 20.300781 17.15625 20.5 17.207031 20.695312 17.207031 C 21.050781 17.207031 21.398438 17.046875 21.605469 16.753906 C 22.0625 16.101562 22.589844 14.609375 22.164062 13.175781 Z M 22.164062 13.175781 "/>
<path style=" stroke:none;fill-rule:nonzero;fill:rgb(13.72549%,85.098039%,59.215686%);fill-opacity:1;" d="M 16.894531 0 C 16.300781 0 15.820312 0.4375 15.820312 0.976562 L 15.820312 3.761719 C 15.820312 4.300781 16.300781 4.738281 16.894531 4.738281 C 17.488281 4.738281 17.96875 4.300781 17.96875 3.761719 L 17.96875 0.976562 C 17.96875 0.4375 17.488281 0 16.894531 0 Z M 16.894531 0 "/>
<path style=" stroke:none;fill-rule:nonzero;fill:rgb(13.72549%,85.098039%,59.215686%);fill-opacity:1;" d="M 4.976562 13.621094 L 1.914062 13.621094 C 1.320312 13.621094 0.839844 14.058594 0.839844 14.597656 C 0.839844 15.136719 1.320312 15.574219 1.914062 15.574219 L 4.976562 15.574219 C 5.570312 15.574219 6.050781 15.136719 6.050781 14.597656 C 6.050781 14.058594 5.570312 13.621094 4.976562 13.621094 Z M 4.976562 13.621094 "/>
<path style=" stroke:none;fill-rule:nonzero;fill:rgb(13.72549%,85.098039%,59.215686%);fill-opacity:1;" d="M 11.867188 4.722656 L 10.335938 2.3125 C 10.039062 1.847656 9.382812 1.6875 8.867188 1.957031 C 8.355469 2.226562 8.175781 2.824219 8.472656 3.289062 L 10.003906 5.699219 C 10.203125 6.011719 10.566406 6.1875 10.9375 6.1875 C 11.117188 6.1875 11.304688 6.144531 11.472656 6.058594 C 11.984375 5.789062 12.164062 5.191406 11.867188 4.722656 Z M 11.867188 4.722656 "/>
<path style=" stroke:none;fill-rule:nonzero;fill:rgb(13.72549%,85.098039%,59.215686%);fill-opacity:1;" d="M 7.109375 8.332031 L 4.457031 6.941406 C 3.945312 6.671875 3.285156 6.832031 2.992188 7.296875 C 2.695312 7.765625 2.871094 8.363281 3.382812 8.632812 L 6.035156 10.023438 C 6.203125 10.113281 6.386719 10.15625 6.570312 10.15625 C 6.941406 10.15625 7.304688 9.980469 7.503906 9.667969 C 7.796875 9.199219 7.621094 8.601562 7.109375 8.332031 Z M 7.109375 8.332031 "/>
<path style=" stroke:none;fill-rule:nonzero;fill:rgb(13.72549%,85.098039%,59.215686%);fill-opacity:1;" d="M 30.800781 7.296875 C 30.503906 6.832031 29.847656 6.671875 29.332031 6.941406 L 26.683594 8.332031 C 26.167969 8.601562 25.992188 9.199219 26.289062 9.667969 C 26.488281 9.980469 26.847656 10.15625 27.21875 10.15625 C 27.402344 10.15625 27.585938 10.113281 27.757812 10.023438 L 30.40625 8.632812 C 30.921875 8.363281 31.097656 7.765625 30.800781 7.296875 Z M 30.800781 7.296875 "/>
<path style=" stroke:none;fill-rule:nonzero;fill:rgb(13.72549%,85.098039%,59.215686%);fill-opacity:1;" d="M 7.503906 19.527344 C 7.207031 19.058594 6.550781 18.898438 6.035156 19.167969 L 3.382812 20.558594 C 2.871094 20.828125 2.695312 21.425781 2.988281 21.894531 C 3.1875 22.207031 3.550781 22.382812 3.921875 22.382812 C 4.105469 22.382812 4.289062 22.339844 4.457031 22.25 L 7.109375 20.859375 C 7.625 20.589844 7.800781 19.992188 7.503906 19.527344 Z M 7.503906 19.527344 "/>
<path style=" stroke:none;fill-rule:nonzero;fill:rgb(13.72549%,85.098039%,59.215686%);fill-opacity:1;" d="M 11.25 23.484375 C 10.738281 23.214844 10.082031 23.375 9.785156 23.839844 L 8.472656 25.902344 C 8.175781 26.371094 8.355469 26.96875 8.867188 27.238281 C 9.035156 27.324219 9.222656 27.367188 9.402344 27.367188 C 9.773438 27.367188 10.136719 27.191406 10.335938 26.878906 L 11.644531 24.816406 C 11.941406 24.351562 11.765625 23.753906 11.25 23.484375 Z M 11.25 23.484375 "/>
<path style=" stroke:none;fill-rule:nonzero;fill:rgb(13.72549%,85.098039%,59.215686%);fill-opacity:1;" d="M 24.921875 1.957031 C 24.410156 1.6875 23.753906 1.847656 23.457031 2.3125 L 21.925781 4.722656 C 21.628906 5.191406 21.804688 5.789062 22.316406 6.058594 C 22.488281 6.144531 22.671875 6.1875 22.855469 6.1875 C 23.226562 6.1875 23.585938 6.011719 23.785156 5.699219 L 25.316406 3.289062 C 25.613281 2.824219 25.4375 2.226562 24.921875 1.957031 Z M 24.921875 1.957031 "/>
</g>
</svg>
