<?xml version="1.0" encoding="UTF-8"?>
<svg xmlns="http://www.w3.org/2000/svg" xmlns:xlink="http://www.w3.org/1999/xlink" width="55pt" height="55pt" viewBox="0 0 55 55" version="1.1">
<g id="surface1">
<path style=" stroke:none;fill-rule:nonzero;fill:rgb(0%,0%,0%);fill-opacity:1;" d="M 27.5 1.144531 C 12.304688 1.144531 0 13.246094 0 28.167969 C 0 40.109375 7.878906 50.238281 18.804688 53.808594 C 20.179688 54.0625 20.683594 53.226562 20.683594 52.507812 C 20.683594 51.867188 20.660156 50.167969 20.648438 47.914062 C 13 49.542969 11.386719 44.289062 11.386719 44.289062 C 10.132812 41.167969 8.324219 40.335938 8.324219 40.335938 C 5.835938 38.660156 8.519531 38.695312 8.519531 38.695312 C 11.28125 38.882812 12.730469 41.480469 12.730469 41.480469 C 15.183594 45.609375 19.167969 44.417969 20.738281 43.726562 C 20.988281 41.980469 21.695312 40.789062 22.480469 40.113281 C 16.375 39.4375 9.953125 37.113281 9.953125 26.761719 C 9.953125 23.808594 11.019531 21.398438 12.785156 19.507812 C 12.476562 18.824219 11.546875 16.078125 13.027344 12.355469 C 13.027344 12.355469 15.328125 11.632812 20.589844 15.128906 C 22.789062 14.527344 25.125 14.230469 27.464844 14.214844 C 29.800781 14.230469 32.136719 14.527344 34.339844 15.128906 C 39.5625 11.632812 41.867188 12.355469 41.867188 12.355469 C 43.34375 16.078125 42.417969 18.824219 42.140625 19.507812 C 43.894531 21.398438 44.960938 23.808594 44.960938 26.761719 C 44.960938 37.140625 38.53125 39.425781 32.414062 40.089844 C 33.375 40.902344 34.269531 42.558594 34.269531 45.089844 C 34.269531 48.707031 34.234375 51.613281 34.234375 52.492188 C 34.234375 53.199219 34.714844 54.042969 36.125 53.773438 C 47.128906 50.226562 55 40.09375 55 28.167969 C 55 13.246094 42.6875 1.144531 27.5 1.144531 Z M 27.5 1.144531 "/>
</g>
</svg>
