<?xml version="1.0" encoding="UTF-8"?>
<svg xmlns="http://www.w3.org/2000/svg" xmlns:xlink="http://www.w3.org/1999/xlink" width="55pt" height="50pt" viewBox="0 0 55 50" version="1.1">
<g id="surface1">
<path style=" stroke:none;fill-rule:nonzero;fill:rgb(13.72549%,85.098039%,59.215686%);fill-opacity:1;" d="M 27.5 9.765625 C 26.90625 9.765625 26.425781 10.203125 26.425781 10.742188 C 26.425781 11.28125 26.90625 11.71875 27.5 11.71875 C 28.09375 11.71875 28.574219 11.28125 28.574219 10.742188 C 28.574219 10.203125 28.09375 9.765625 27.5 9.765625 Z M 27.5 9.765625 "/>
<path style=" stroke:none;fill-rule:nonzero;fill:rgb(13.72549%,85.098039%,59.215686%);fill-opacity:1;" d="M 9.667969 27.34375 C 10.261719 27.34375 10.742188 26.90625 10.742188 26.367188 C 10.742188 25.828125 10.261719 25.390625 9.667969 25.390625 C 9.074219 25.390625 8.59375 25.828125 8.59375 26.367188 C 8.59375 26.90625 9.074219 27.34375 9.667969 27.34375 Z M 9.667969 27.34375 "/>
<path style=" stroke:none;fill-rule:nonzero;fill:rgb(13.72549%,85.098039%,59.215686%);fill-opacity:1;" d="M 36.09375 0 C 26.421875 0 18.484375 6.0625 17.871094 13.695312 C 8.660156 14.117188 0 20.152344 0 28.320312 C 0 31.734375 1.484375 35.039062 4.1875 37.660156 C 4.722656 39.664062 4.074219 41.789062 2.464844 43.253906 C 2.15625 43.535156 2.0625 43.953125 2.230469 44.320312 C 2.394531 44.683594 2.789062 44.921875 3.222656 44.921875 C 6.285156 44.921875 9.238281 43.828125 11.433594 41.90625 C 13.570312 42.566406 16.359375 42.96875 18.90625 42.96875 C 28.574219 42.96875 36.511719 36.910156 37.128906 29.273438 C 39.378906 29.183594 41.714844 28.808594 43.566406 28.234375 C 45.761719 30.15625 48.714844 31.25 51.777344 31.25 C 52.210938 31.25 52.605469 31.011719 52.769531 30.648438 C 52.9375 30.28125 52.84375 29.863281 52.535156 29.582031 C 50.925781 28.117188 50.277344 25.992188 50.808594 23.988281 C 53.515625 21.367188 55 18.0625 55 14.648438 C 55 6.164062 45.671875 0 36.09375 0 Z M 18.90625 41.015625 C 16.371094 41.015625 13.480469 40.5625 11.546875 39.863281 C 11.132812 39.714844 10.660156 39.8125 10.355469 40.109375 C 9.058594 41.398438 7.375 42.300781 5.535156 42.710938 C 6.546875 40.949219 6.804688 38.871094 6.191406 36.898438 C 6.140625 36.746094 6.050781 36.601562 5.929688 36.488281 C 3.492188 34.203125 2.148438 31.304688 2.148438 28.320312 C 2.148438 21.4375 9.824219 15.625 18.90625 15.625 C 27.484375 15.625 35.019531 21.046875 35.019531 28.320312 C 35.019531 35.320312 27.792969 41.015625 18.90625 41.015625 Z M 49.070312 22.816406 C 48.949219 22.929688 48.859375 23.074219 48.808594 23.226562 C 48.195312 25.199219 48.453125 27.277344 49.464844 29.039062 C 47.625 28.628906 45.941406 27.726562 44.644531 26.4375 C 44.339844 26.140625 43.867188 26.042969 43.453125 26.191406 C 41.777344 26.796875 39.382812 27.21875 37.125 27.320312 C 36.8125 23.625 34.785156 20.15625 31.320312 17.578125 L 45.332031 17.578125 C 45.925781 17.578125 46.40625 17.140625 46.40625 16.601562 C 46.40625 16.0625 45.925781 15.625 45.332031 15.625 L 28.019531 15.625 C 25.582031 14.496094 22.84375 13.839844 20.023438 13.699219 C 20.644531 7.140625 27.613281 1.953125 36.09375 1.953125 C 45.175781 1.953125 52.851562 7.765625 52.851562 14.648438 C 52.851562 17.632812 51.507812 20.53125 49.070312 22.816406 Z M 49.070312 22.816406 "/>
<path style=" stroke:none;fill-rule:nonzero;fill:rgb(13.72549%,85.098039%,59.215686%);fill-opacity:1;" d="M 27.5 25.390625 L 13.964844 25.390625 C 13.371094 25.390625 12.890625 25.828125 12.890625 26.367188 C 12.890625 26.90625 13.371094 27.34375 13.964844 27.34375 L 27.5 27.34375 C 28.09375 27.34375 28.574219 26.90625 28.574219 26.367188 C 28.574219 25.828125 28.09375 25.390625 27.5 25.390625 Z M 27.5 25.390625 "/>
<path style=" stroke:none;fill-rule:nonzero;fill:rgb(13.72549%,85.098039%,59.215686%);fill-opacity:1;" d="M 27.5 31.25 L 9.667969 31.25 C 9.074219 31.25 8.59375 31.6875 8.59375 32.226562 C 8.59375 32.765625 9.074219 33.203125 9.667969 33.203125 L 27.5 33.203125 C 28.09375 33.203125 28.574219 32.765625 28.574219 32.226562 C 28.574219 31.6875 28.09375 31.25 27.5 31.25 Z M 27.5 31.25 "/>
<path style=" stroke:none;fill-rule:nonzero;fill:rgb(13.72549%,85.098039%,59.215686%);fill-opacity:1;" d="M 45.332031 9.765625 L 31.796875 9.765625 C 31.203125 9.765625 30.722656 10.203125 30.722656 10.742188 C 30.722656 11.28125 31.203125 11.71875 31.796875 11.71875 L 45.332031 11.71875 C 45.925781 11.71875 46.40625 11.28125 46.40625 10.742188 C 46.40625 10.203125 45.925781 9.765625 45.332031 9.765625 Z M 45.332031 9.765625 "/>
</g>
</svg>
