<?xml version="1.0" encoding="UTF-8"?>
<svg xmlns="http://www.w3.org/2000/svg" xmlns:xlink="http://www.w3.org/1999/xlink" width="55pt" height="50pt" viewBox="0 0 55 50" version="1.1">
<g id="surface1">
<path style=" stroke:none;fill-rule:nonzero;fill:rgb(13.72549%,85.098039%,59.215686%);fill-opacity:1;" d="M 52.5 0 L 32.5 0 C 31.121094 0 30 1.015625 30 2.273438 C 30 3.527344 31.121094 4.546875 32.5 4.546875 L 46.464844 4.546875 L 20.730469 27.9375 C 19.757812 28.824219 19.757812 30.265625 20.730469 31.152344 C 21.21875 31.597656 21.859375 31.816406 22.5 31.816406 C 23.140625 31.816406 23.78125 31.597656 24.269531 31.152344 L 50 7.757812 L 50 20.453125 C 50 21.710938 51.121094 22.726562 52.5 22.726562 C 53.878906 22.726562 55 21.710938 55 20.453125 L 55 2.273438 C 55 1.015625 53.878906 0 52.5 0 Z M 52.5 0 "/>
<path style=" stroke:none;fill-rule:nonzero;fill:rgb(13.72549%,85.098039%,59.215686%);fill-opacity:1;" d="M 42.5 22.726562 C 41.121094 22.726562 40 23.746094 40 25 L 40 45.453125 L 5 45.453125 L 5 13.636719 L 27.5 13.636719 C 28.878906 13.636719 30 12.617188 30 11.363281 C 30 10.109375 28.878906 9.089844 27.5 9.089844 L 2.5 9.089844 C 1.121094 9.089844 0 10.109375 0 11.363281 L 0 47.726562 C 0 48.984375 1.121094 50 2.5 50 L 42.5 50 C 43.878906 50 45 48.984375 45 47.726562 L 45 25 C 45 23.746094 43.878906 22.726562 42.5 22.726562 Z M 42.5 22.726562 "/>
</g>
</svg>
