<?xml version="1.0" encoding="UTF-8"?>
<svg xmlns="http://www.w3.org/2000/svg" xmlns:xlink="http://www.w3.org/1999/xlink" width="55pt" height="55pt" viewBox="0 0 55 55" version="1.1">
<g id="surface1">
<path style=" stroke:none;fill-rule:nonzero;fill:rgb(0%,46.666667%,71.764706%);fill-opacity:1;" d="M 50.023438 0 L 4.976562 0 C 2.226562 0 0 2.226562 0 4.976562 L 0 50.023438 C 0 52.773438 2.226562 55 4.976562 55 L 50.023438 55 C 52.773438 55 55 52.773438 55 50.023438 L 55 4.976562 C 55 2.226562 52.773438 0 50.023438 0 Z M 17.019531 47.492188 C 17.019531 48.289062 16.371094 48.9375 15.570312 48.9375 L 9.410156 48.9375 C 8.609375 48.9375 7.960938 48.289062 7.960938 47.492188 L 7.960938 21.65625 C 7.960938 20.855469 8.609375 20.207031 9.410156 20.207031 L 15.570312 20.207031 C 16.371094 20.207031 17.019531 20.855469 17.019531 21.65625 Z M 12.488281 17.773438 C 9.257812 17.773438 6.636719 15.148438 6.636719 11.917969 C 6.636719 8.683594 9.257812 6.0625 12.488281 6.0625 C 15.722656 6.0625 18.34375 8.683594 18.34375 11.917969 C 18.34375 15.148438 15.722656 17.773438 12.488281 17.773438 Z M 49.226562 47.605469 C 49.226562 48.34375 48.632812 48.9375 47.898438 48.9375 L 41.28125 48.9375 C 40.546875 48.9375 39.953125 48.34375 39.953125 47.605469 L 39.953125 35.488281 C 39.953125 33.679688 40.480469 27.566406 35.226562 27.566406 C 31.152344 27.566406 30.324219 31.75 30.160156 33.628906 L 30.160156 47.605469 C 30.160156 48.34375 29.5625 48.9375 28.828125 48.9375 L 22.429688 48.9375 C 21.695312 48.9375 21.101562 48.34375 21.101562 47.605469 L 21.101562 21.539062 C 21.101562 20.804688 21.695312 20.207031 22.429688 20.207031 L 28.828125 20.207031 C 29.5625 20.207031 30.160156 20.804688 30.160156 21.539062 L 30.160156 23.792969 C 31.671875 21.523438 33.917969 19.773438 38.699219 19.773438 C 49.289062 19.773438 49.226562 29.667969 49.226562 35.101562 Z M 49.226562 47.605469 "/>
</g>
</svg>
