<?xml version="1.0" encoding="UTF-8"?>
<svg xmlns="http://www.w3.org/2000/svg" xmlns:xlink="http://www.w3.org/1999/xlink" width="55pt" height="50pt" viewBox="0 0 55 50" version="1.1">
<g id="surface1">
<path style=" stroke:none;fill-rule:nonzero;fill:rgb(13.72549%,85.098039%,59.215686%);fill-opacity:1;" d="M 27.5 0 C 12.335938 0 0 11.214844 0 25 C 0 38.785156 12.335938 50 27.5 50 C 42.664062 50 55 38.785156 55 25 C 55 11.214844 42.664062 0 27.5 0 Z M 27.5 2.929688 C 32.019531 2.929688 36.253906 4.058594 39.878906 6.023438 L 18.941406 19.851562 L 14.1875 6.550781 C 18.015625 4.265625 22.589844 2.929688 27.5 2.929688 Z M 27.503906 17.820312 L 35.011719 22.777344 L 32.140625 30.808594 L 22.859375 30.808594 L 19.988281 22.78125 Z M 3.222656 25 C 3.222656 18.410156 6.417969 12.484375 11.472656 8.4375 L 19.46875 30.808594 L 4.078125 30.808594 C 3.519531 28.957031 3.222656 27.007812 3.222656 25 Z M 26.339844 47.042969 C 16.863281 46.636719 8.792969 41.265625 5.207031 33.738281 L 31.09375 33.738281 Z M 29.753906 46.972656 L 37.753906 24.589844 L 50.203125 32.8125 C 46.980469 40.527344 39.132812 46.1875 29.753906 46.972656 Z M 30.246094 16.007812 L 42.683594 7.792969 C 48.222656 11.839844 51.777344 18.050781 51.777344 25 C 51.777344 26.664062 51.574219 28.28125 51.1875 29.839844 Z M 30.246094 16.007812 "/>
</g>
</svg>
