<?xml version="1.0" encoding="UTF-8"?>
<svg xmlns="http://www.w3.org/2000/svg" xmlns:xlink="http://www.w3.org/1999/xlink" width="55pt" height="50pt" viewBox="0 0 55 50" version="1.1">
<g id="surface1">
<path style=" stroke:none;fill-rule:nonzero;fill:rgb(85.098039%,43.137255%,83.137255%);fill-opacity:1;" d="M 27.5 0 C 12.394531 0 0 11.269531 0 25 C 0 36.71875 9.042969 47.363281 21.054688 50 L 21.054688 41.730469 C 19.863281 41.964844 18.769531 41.972656 17.558594 41.648438 C 15.933594 41.210938 14.613281 40.226562 13.632812 38.726562 C 13.007812 37.769531 11.898438 36.730469 10.746094 36.804688 L 10.460938 33.886719 C 12.960938 33.691406 15.121094 35.269531 16.402344 37.230469 C 16.972656 38.101562 17.628906 38.613281 18.46875 38.839844 C 19.285156 39.054688 20.15625 38.953125 21.175781 38.625 C 21.429688 36.773438 22.363281 36.078125 23.070312 35.101562 C 15.90625 34.128906 13.054688 30.675781 11.921875 27.949219 C 10.417969 24.328125 11.222656 19.804688 13.878906 16.945312 C 13.929688 16.890625 14.023438 16.746094 13.988281 16.644531 C 12.769531 13.300781 14.253906 10.535156 14.308594 10.242188 C 15.714844 10.617188 15.941406 9.863281 20.410156 12.328125 L 21.183594 12.75 C 21.507812 12.925781 21.40625 12.828125 21.726562 12.804688 C 23.59375 12.34375 25.5625 12.089844 27.5 12.066406 C 29.453125 12.089844 31.40625 12.34375 33.351562 12.824219 L 33.601562 12.847656 C 33.578125 12.84375 33.667969 12.832031 33.820312 12.75 C 39.402344 9.675781 39.203125 10.679688 40.699219 10.238281 C 40.753906 10.53125 42.214844 13.34375 41.011719 16.644531 C 40.851562 17.097656 45.851562 21.261719 43.078125 27.945312 C 41.945312 30.675781 39.09375 34.128906 31.929688 35.101562 C 32.847656 36.375 33.949219 37.050781 33.945312 39.675781 L 33.945312 50 C 45.957031 47.363281 55 36.71875 55 25 C 55 11.269531 42.605469 0 27.5 0 Z M 27.5 0 "/>
</g>
</svg>
