<?xml version="1.0" encoding="UTF-8"?>
<svg xmlns="http://www.w3.org/2000/svg" xmlns:xlink="http://www.w3.org/1999/xlink" width="55pt" height="50pt" viewBox="0 0 55 50" version="1.1">
<g id="surface1">
<path style=" stroke:none;fill-rule:nonzero;fill:rgb(13.72549%,85.098039%,59.215686%);fill-opacity:1;" d="M 31.8125 10.140625 C 33.101562 9.070312 33.917969 7.539062 33.917969 5.832031 C 33.917969 2.617188 31.039062 0 27.5 0 C 23.960938 0 21.082031 2.617188 21.082031 5.832031 C 21.082031 7.539062 21.898438 9.070312 23.1875 10.140625 C 19.382812 10.804688 16.5 13.851562 16.5 17.5 L 16.5 20.832031 C 16.5 21.292969 16.910156 21.667969 17.417969 21.667969 L 37.582031 21.667969 C 38.089844 21.667969 38.5 21.292969 38.5 20.832031 L 38.5 17.5 C 38.5 13.851562 35.617188 10.804688 31.8125 10.140625 Z M 22.917969 5.832031 C 22.917969 3.535156 24.972656 1.667969 27.5 1.667969 C 30.027344 1.667969 32.082031 3.535156 32.082031 5.832031 C 32.082031 8.128906 30.027344 10 27.5 10 C 24.972656 10 22.917969 8.128906 22.917969 5.832031 Z M 36.667969 20 L 18.332031 20 L 18.332031 17.5 C 18.332031 14.285156 21.210938 11.667969 24.75 11.667969 L 30.25 11.667969 C 33.789062 11.667969 36.667969 14.285156 36.667969 17.5 Z M 36.667969 20 "/>
<path style=" stroke:none;fill-rule:nonzero;fill:rgb(13.72549%,85.098039%,59.215686%);fill-opacity:1;" d="M 15.3125 38.472656 C 16.601562 37.40625 17.417969 35.871094 17.417969 34.167969 C 17.417969 30.949219 14.539062 28.332031 11 28.332031 C 7.460938 28.332031 4.582031 30.949219 4.582031 34.167969 C 4.582031 35.871094 5.398438 37.40625 6.6875 38.472656 C 2.882812 39.140625 0 42.183594 0 45.832031 L 0 49.167969 C 0 49.628906 0.410156 50 0.917969 50 L 21.082031 50 C 21.589844 50 22 49.628906 22 49.167969 L 22 45.832031 C 22 42.183594 19.117188 39.140625 15.3125 38.472656 Z M 6.417969 34.167969 C 6.417969 31.871094 8.472656 30 11 30 C 13.527344 30 15.582031 31.871094 15.582031 34.167969 C 15.582031 36.464844 13.527344 38.332031 11 38.332031 C 8.472656 38.332031 6.417969 36.464844 6.417969 34.167969 Z M 20.167969 48.332031 L 1.832031 48.332031 L 1.832031 45.832031 C 1.832031 42.617188 4.710938 40 8.25 40 L 13.75 40 C 17.289062 40 20.167969 42.617188 20.167969 45.832031 Z M 20.167969 48.332031 "/>
<path style=" stroke:none;fill-rule:nonzero;fill:rgb(13.72549%,85.098039%,59.215686%);fill-opacity:1;" d="M 48.3125 38.472656 C 49.601562 37.40625 50.417969 35.871094 50.417969 34.167969 C 50.417969 30.949219 47.539062 28.332031 44 28.332031 C 40.460938 28.332031 37.582031 30.949219 37.582031 34.167969 C 37.582031 35.871094 38.398438 37.40625 39.6875 38.472656 C 35.882812 39.140625 33 42.183594 33 45.832031 L 33 49.167969 C 33 49.628906 33.410156 50 33.917969 50 L 54.082031 50 C 54.589844 50 55 49.628906 55 49.167969 L 55 45.832031 C 55 42.183594 52.117188 39.140625 48.3125 38.472656 Z M 39.417969 34.167969 C 39.417969 31.871094 41.472656 30 44 30 C 46.527344 30 48.582031 31.871094 48.582031 34.167969 C 48.582031 36.464844 46.527344 38.332031 44 38.332031 C 41.472656 38.332031 39.417969 36.464844 39.417969 34.167969 Z M 53.167969 48.332031 L 34.832031 48.332031 L 34.832031 45.832031 C 34.832031 42.617188 37.710938 40 41.25 40 L 46.75 40 C 50.289062 40 53.167969 42.617188 53.167969 45.832031 Z M 53.167969 48.332031 "/>
<path style=" stroke:none;fill-rule:nonzero;fill:rgb(13.72549%,85.098039%,59.215686%);fill-opacity:1;" d="M 5.515625 26.640625 L 3.6875 26.703125 C 3.710938 27.277344 3.761719 27.859375 3.835938 28.433594 L 5.65625 28.234375 C 5.585938 27.707031 5.539062 27.171875 5.515625 26.640625 Z M 5.515625 26.640625 "/>
<path style=" stroke:none;fill-rule:nonzero;fill:rgb(13.72549%,85.098039%,59.215686%);fill-opacity:1;" d="M 3.835938 23.246094 C 3.761719 23.816406 3.710938 24.398438 3.6875 24.972656 L 5.515625 25.039062 C 5.539062 24.503906 5.585938 23.96875 5.65625 23.445312 Z M 3.835938 23.246094 "/>
<path style=" stroke:none;fill-rule:nonzero;fill:rgb(13.72549%,85.098039%,59.215686%);fill-opacity:1;" d="M 13.050781 8.597656 C 12.550781 8.945312 12.058594 9.316406 11.582031 9.703125 L 12.808594 10.945312 C 13.246094 10.585938 13.699219 10.246094 14.164062 9.925781 Z M 13.050781 8.597656 "/>
<path style=" stroke:none;fill-rule:nonzero;fill:rgb(13.72549%,85.098039%,59.215686%);fill-opacity:1;" d="M 5.929688 16.609375 C 5.660156 17.128906 5.410156 17.664062 5.1875 18.207031 L 6.902344 18.792969 C 7.109375 18.292969 7.339844 17.800781 7.585938 17.320312 Z M 5.929688 16.609375 "/>
<path style=" stroke:none;fill-rule:nonzero;fill:rgb(13.72549%,85.098039%,59.215686%);fill-opacity:1;" d="M 4.585938 19.851562 C 4.410156 20.402344 4.261719 20.972656 4.136719 21.535156 L 5.933594 21.863281 C 6.046875 21.34375 6.1875 20.820312 6.347656 20.3125 Z M 4.585938 19.851562 "/>
<path style=" stroke:none;fill-rule:nonzero;fill:rgb(13.72549%,85.098039%,59.215686%);fill-opacity:1;" d="M 10.21875 10.914062 C 9.777344 11.335938 9.355469 11.773438 8.960938 12.214844 L 10.386719 13.265625 C 10.75 12.855469 11.140625 12.449219 11.546875 12.0625 Z M 10.21875 10.914062 "/>
<path style=" stroke:none;fill-rule:nonzero;fill:rgb(13.72549%,85.098039%,59.215686%);fill-opacity:1;" d="M 16.253906 6.726562 C 15.699219 6.996094 15.148438 7.289062 14.609375 7.605469 L 15.605469 9.007812 C 16.097656 8.714844 16.609375 8.441406 17.117188 8.195312 Z M 16.253906 6.726562 "/>
<path style=" stroke:none;fill-rule:nonzero;fill:rgb(13.72549%,85.098039%,59.215686%);fill-opacity:1;" d="M 7.824219 13.605469 C 7.464844 14.078125 7.125 14.574219 6.808594 15.074219 L 8.398438 15.902344 C 8.6875 15.441406 9.003906 14.984375 9.335938 14.546875 Z M 7.824219 13.605469 "/>
<path style=" stroke:none;fill-rule:nonzero;fill:rgb(13.72549%,85.098039%,59.215686%);fill-opacity:1;" d="M 23.15625 45.441406 L 22.792969 47.078125 C 23.410156 47.191406 24.046875 47.28125 24.679688 47.347656 L 24.890625 45.695312 C 24.308594 45.632812 23.726562 45.546875 23.15625 45.441406 Z M 23.15625 45.441406 "/>
<path style=" stroke:none;fill-rule:nonzero;fill:rgb(13.72549%,85.098039%,59.215686%);fill-opacity:1;" d="M 31.902344 45.433594 C 31.332031 45.539062 30.746094 45.625 30.164062 45.6875 L 30.382812 47.34375 C 31.015625 47.273438 31.648438 47.179688 32.265625 47.066406 Z M 31.902344 45.433594 "/>
<path style=" stroke:none;fill-rule:nonzero;fill:rgb(13.72549%,85.098039%,59.215686%);fill-opacity:1;" d="M 28.410156 45.816406 C 27.824219 45.835938 27.230469 45.839844 26.648438 45.820312 L 26.578125 47.484375 C 26.882812 47.496094 27.191406 47.5 27.503906 47.5 C 27.832031 47.5 28.15625 47.492188 28.484375 47.480469 Z M 28.410156 45.816406 "/>
<path style=" stroke:none;fill-rule:nonzero;fill:rgb(13.72549%,85.098039%,59.215686%);fill-opacity:1;" d="M 43.421875 9.710938 L 42.195312 10.949219 C 42.632812 11.308594 43.054688 11.683594 43.457031 12.066406 L 44.789062 10.921875 C 44.351562 10.503906 43.894531 10.097656 43.421875 9.710938 Z M 43.421875 9.710938 "/>
<path style=" stroke:none;fill-rule:nonzero;fill:rgb(13.72549%,85.098039%,59.215686%);fill-opacity:1;" d="M 46.042969 12.222656 L 44.617188 13.269531 C 44.984375 13.679688 45.335938 14.113281 45.667969 14.550781 L 47.179688 13.609375 C 46.820312 13.132812 46.4375 12.667969 46.042969 12.222656 Z M 46.042969 12.222656 "/>
<path style=" stroke:none;fill-rule:nonzero;fill:rgb(13.72549%,85.098039%,59.215686%);fill-opacity:1;" d="M 51.3125 24.976562 L 49.484375 25.042969 C 49.496094 25.304688 49.5 25.570312 49.5 25.832031 C 49.5 26.105469 49.496094 26.375 49.484375 26.640625 L 51.3125 26.707031 C 51.328125 26.417969 51.332031 26.125 51.332031 25.832031 C 51.332031 25.546875 51.328125 25.261719 51.3125 24.976562 Z M 51.3125 24.976562 "/>
<path style=" stroke:none;fill-rule:nonzero;fill:rgb(13.72549%,85.098039%,59.215686%);fill-opacity:1;" d="M 48.195312 15.078125 L 46.601562 15.90625 C 46.894531 16.367188 47.167969 16.84375 47.417969 17.324219 L 49.074219 16.613281 C 48.804688 16.09375 48.507812 15.574219 48.195312 15.078125 Z M 48.195312 15.078125 "/>
<path style=" stroke:none;fill-rule:nonzero;fill:rgb(13.72549%,85.098039%,59.215686%);fill-opacity:1;" d="M 49.816406 18.210938 L 48.101562 18.796875 C 48.304688 19.292969 48.492188 19.804688 48.652344 20.3125 L 50.414062 19.855469 C 50.242188 19.300781 50.039062 18.75 49.816406 18.210938 Z M 49.816406 18.210938 "/>
<path style=" stroke:none;fill-rule:nonzero;fill:rgb(13.72549%,85.098039%,59.215686%);fill-opacity:1;" d="M 50.863281 21.539062 L 49.066406 21.867188 C 49.183594 22.390625 49.277344 22.921875 49.34375 23.449219 L 51.164062 23.25 C 51.089844 22.679688 50.988281 22.105469 50.863281 21.539062 Z M 50.863281 21.539062 "/>
<path style=" stroke:none;fill-rule:nonzero;fill:rgb(13.72549%,85.098039%,59.215686%);fill-opacity:1;" d="M 40.394531 7.609375 L 39.402344 9.011719 C 39.890625 9.296875 40.375 9.605469 40.84375 9.929688 L 41.953125 8.605469 C 41.449219 8.253906 40.925781 7.917969 40.394531 7.609375 Z M 40.394531 7.609375 "/>
<path style=" stroke:none;fill-rule:nonzero;fill:rgb(13.72549%,85.098039%,59.215686%);fill-opacity:1;" d="M 37.035156 5.972656 L 36.304688 7.5 C 36.835938 7.710938 37.367188 7.945312 37.886719 8.199219 L 38.753906 6.730469 C 38.195312 6.457031 37.617188 6.199219 37.035156 5.972656 Z M 37.035156 5.972656 "/>
</g>
</svg>
